<?xml version="1.0" encoding="utf-8"?>
<!-- Generator: Adobe Illustrator 24.1.1, SVG Export Plug-In . SVG Version: 6.00 Build 0)  -->
<svg version="1.1" id="Layer_1" xmlns="http://www.w3.org/2000/svg" xmlns:xlink="http://www.w3.org/1999/xlink" x="0px" y="0px"
	 viewBox="0 0 256 82.43" style="enable-background:new 0 0 256 82.43;" xml:space="preserve">
<style type="text/css">
	.st0{fill:#FDC533;}
	.st1{fill:#1CA3C2;}
	.st2{fill:#EA5045;}
	.st3{fill:#58B999;}
</style>
<g>
	<g>
		<path class="st0" d="M71.34,41.35c0,2.78-1.06,5.55-3.18,7.67c-2.12,2.12-4.89,3.18-7.67,3.18c-0.08,0-0.16,0-0.24,0l-3.86,3.86
			c-1.18,1.18-3.14,0.83-3.89-0.66c-0.63-1.27-1.47-2.44-2.5-3.47c-1.03-1.03-2.2-1.87-3.47-2.5c-1.49-0.74-1.84-2.71-0.66-3.89
			l3.79-3.79c-0.01-0.13-0.01-0.26-0.01-0.39c0-2.78,1.06-5.55,3.18-7.67c2.22-2.22,5.16-3.27,8.06-3.17
			c1.4,0.05,2.06,1.77,1.07,2.76l-3.92,3.92c-0.47,0.47-0.47,1.23,0,1.7l0,0c0.47,0.47,1.23,0.47,1.7,0l4.02-4.02
			c0.88-0.88,2.3-0.88,3.18,0l0.02,0.02c0.01,0.01,0.01,0.01,0.02,0.02c0.96,0.97,0.95,2.55-0.02,3.52l-3.84,3.84
			c-0.47,0.47-0.47,1.23,0,1.7l0,0c0.47,0.47,1.23,0.47,1.7,0l3.77-3.77c1.01-1.01,2.76-0.31,2.76,1.12
			C71.34,41.32,71.34,41.33,71.34,41.35z"/>
		<path class="st1" d="M31.59,41.07c0,0.11,0.01,0.21,0.01,0.32c0,2.78-1.06,5.55-3.18,7.67c-2.12,2.12-4.89,3.18-7.67,3.18
			c-0.01,0-0.02,0-0.04,0c-1.49,0-2.22-1.82-1.17-2.87l3.74-3.74c0.47-0.47,0.47-1.23,0-1.7l0,0c-0.47-0.47-1.23-0.47-1.7,0
			l-3.57,3.57c-0.93,0.93-2.43,0.95-3.36,0.02c-0.01-0.01-0.01-0.01-0.02-0.02c-0.01-0.01-0.01-0.01-0.02-0.02
			c-0.92-0.93-0.9-2.43,0.02-3.36l3.57-3.57c0.47-0.47,0.47-1.23,0-1.7l0,0c-0.47-0.47-1.23-0.47-1.7,0l-3.74,3.74
			c-1.05,1.05-2.86,0.32-2.87-1.17c0-0.01,0-0.03,0-0.04c0-2.78,1.06-5.55,3.18-7.67c2.2-2.2,5.1-3.25,7.98-3.17l3.82-3.82
			c1.17-1.17,3.13-0.83,3.87,0.65c0.63,1.26,1.46,2.42,2.49,3.44c1.04,1.04,2.23,1.89,3.52,2.53c1.5,0.74,1.84,2.71,0.67,3.89
			L31.59,41.07z"/>
		<path class="st2" d="M43.14,58.78L43.14,58.78c-0.47,0.47-0.47,1.23,0,1.7l3.92,3.92c0.9,0.9,0.93,2.38,0.03,3.28
			c-0.01,0.01-0.01,0.01-0.02,0.02c-0.03,0.03-0.06,0.06-0.1,0.1c-0.92,0.89-2.38,0.88-3.29-0.02l-3.92-3.92
			c-0.47-0.47-1.23-0.47-1.7,0l0,0c-0.47,0.47-0.47,1.23,0,1.7l3.75,3.75c1.03,1.03,0.32,2.81-1.14,2.81c-0.01,0-0.02,0-0.03,0
			c-2.78,0-5.55-1.06-7.67-3.18c-2.12-2.12-3.18-4.89-3.18-7.67c0-0.2,0.01-0.4,0.02-0.6l-3.64-3.64c-1.15-1.15-0.87-3.11,0.58-3.85
			c1.22-0.62,2.35-1.44,3.35-2.44c1.01-1.01,1.82-2.13,2.43-3.34c0.74-1.46,2.7-1.76,3.86-0.6l3.64,3.64c0.2-0.01,0.4-0.02,0.6-0.02
			c2.78,0,5.55,1.06,7.67,3.18c2.17,2.17,3.22,5.02,3.18,7.85c-0.02,1.46-1.78,2.18-2.82,1.15l-3.83-3.83
			C44.37,58.31,43.61,58.31,43.14,58.78z"/>
		<path class="st3" d="M55.06,25.69c1.15,1.15,0.87,3.11-0.58,3.85c-1.22,0.62-2.35,1.44-3.35,2.44c-1.01,1.01-1.82,2.13-2.43,3.34
			c-0.74,1.46-2.7,1.76-3.85,0.6l-3.64-3.64c-0.19,0.01-0.38,0.02-0.57,0.02c-2.78,0-5.55-1.06-7.67-3.18
			c-2.12-2.12-3.18-4.89-3.18-7.67c0-0.04,0-0.07,0-0.11c0.01-1.47,1.8-2.2,2.84-1.15l3.8,3.8c0.47,0.47,1.23,0.47,1.7,0l0,0
			c0.47-0.47,0.47-1.23,0-1.7l-4.23-4.23c-0.92-0.92-0.92-2.42,0-3.34l0,0c0.02-0.02,0.04-0.04,0.06-0.06
			c0.92-0.91,2.41-0.89,3.32,0.02l4.23,4.23c0.47,0.47,1.23,0.47,1.7,0l0,0c0.47-0.47,0.47-1.23,0-1.7l-3.76-3.76
			c-1.04-1.04-0.32-2.84,1.15-2.84c0.01,0,0.02,0,0.04,0c2.78,0,5.55,1.06,7.67,3.18c2.28,2.28,3.33,5.32,3.16,8.31L55.06,25.69z"/>
		<path class="st3" d="M69.36,66.35c-1.48-1.02,0.69-5.24-4.18-10.1c-0.01-0.01-0.02-0.03-0.04-0.04l-0.02-0.02
			c-0.82-0.82-0.53-2.19,0.53-2.64c1.55-0.66,2.98-1.61,4.21-2.84c1.23-1.23,2.12-2.84,2.71-4.16c0.5-1.12,1.98-1.41,2.83-0.52
			c1.79,1.88,2.46,7.71,1.28,12.09C75.19,63.7,71.3,67.69,69.36,66.35z"/>
		<path class="st0" d="M15.69,70.2c1.02-1.48,5.24,0.69,10.1-4.18c0.01-0.01,0.03-0.02,0.04-0.04l0.02-0.02
			c0.82-0.82,2.19-0.53,2.64,0.53c0.66,1.55,1.61,2.98,2.84,4.21c1.23,1.23,2.84,2.12,4.16,2.71c1.12,0.5,1.41,1.98,0.52,2.83
			c-1.88,1.79-7.71,2.46-12.09,1.28C18.34,76.03,14.36,72.14,15.69,70.2z"/>
		<path class="st2" d="M11.87,16.4c1.48,1.02-0.69,5.24,4.18,10.1c0.01,0.01,0.02,0.03,0.04,0.04l0.02,0.02
			c0.82,0.82,0.53,2.19-0.53,2.64c-1.55,0.66-2.98,1.61-4.21,2.84c-1.23,1.23-2.12,2.84-2.71,4.16c-0.5,1.12-1.98,1.41-2.83,0.52
			c-1.79-1.88-2.46-7.71-1.28-12.09C6.04,19.05,9.93,15.07,11.87,16.4z"/>
		<path class="st1" d="M65.65,12.59c-1.02,1.48-5.24-0.69-10.1,4.18c-0.01,0.01-0.03,0.02-0.04,0.04l-0.02,0.02
			c-0.82,0.82-2.19,0.53-2.64-0.53c-0.66-1.55-1.61-2.98-2.84-4.21c-1.23-1.23-2.84-2.12-4.16-2.71c-1.12-0.5-1.41-1.98-0.52-2.83
			c1.88-1.79,7.71-2.46,12.09-1.28C63,6.76,66.99,10.65,65.65,12.59z"/>
	</g>
	<g>
		<path class="st3" d="M164.85,12.43c-0.13-0.16-0.33-0.25-0.61-0.25h-5.31c-0.26,0-0.47,0.08-0.66,0.24
			c-0.18,0.16-0.29,0.34-0.33,0.56l-2.84,15.44c-0.15,0.8-0.39,1.51-0.75,2.13c-0.35,0.61-0.77,1.14-1.25,1.55
			c-0.48,0.42-1.02,0.74-1.6,0.95c-0.58,0.21-1.18,0.32-1.78,0.32c-0.58,0-1.13-0.09-1.64-0.27c-0.5-0.18-0.93-0.47-1.26-0.87
			c-0.33-0.39-0.57-0.9-0.7-1.53c-0.14-0.62-0.12-1.38,0.05-2.28l2.84-15.44c0.04-0.23-0.02-0.42-0.19-0.58
			c-0.17-0.15-0.35-0.23-0.53-0.23h-5.44c-0.21,0-0.39,0.08-0.56,0.25s-0.27,0.35-0.31,0.56l-2.82,15.33
			c-0.33,1.78-0.39,3.33-0.16,4.64c0.03,0.18,0.2,0.29,0.4,0.26c0.32-0.04,0.64-0.07,0.94-0.07h0.08c0.55,0,1.09,0.06,1.59,0.18
			c1.85,0.51,5.04,1.88,5.25,5.53c0.02,0.39,0.32,0.67,0.71,0.7c0.04,0,0.08,0.01,0.13,0.01c0.3,0.02,0.62-0.12,0.86-0.37
			c1.62-1.72,2.67-3.33,4.43-4.8c1-0.9,2.15-1.49,3.43-1.74c0.29-0.06,0.61-0.1,1.01-0.1c0.92,0,1.67,0.22,2.23,0.62
			c0.26,0.18,0.66-0.18,0.82-0.49c0.55-1.08,1-2.81,1.29-4.37l2.82-15.33C165.02,12.77,164.97,12.59,164.85,12.43z"/>
		<path class="st3" d="M193.29,22.05c-0.12-1.16-0.39-2.25-0.8-3.25c-0.42-1.01-0.97-1.92-1.67-2.73c-0.7-0.81-1.51-1.51-2.43-2.09
			c-0.92-0.58-1.94-1.03-3.07-1.35c-1.12-0.31-2.32-0.47-3.59-0.47h-8.97c-0.28,0-0.51,0.08-0.67,0.24
			c-0.17,0.16-0.28,0.36-0.33,0.61l-3.79,20.58c-0.1,0.52,0.27,0.93,0.79,0.9c0,0,0,0,0,0c2.46,0,4.55,1.33,4.5,3.57
			c0,0.11,0,0.23-0.01,0.34c-0.02,0.45,0.3,0.78,0.75,0.78h2.75c1.27,0,2.53-0.16,3.78-0.47c1.25-0.31,2.43-0.75,3.56-1.32
			c1.13-0.57,2.19-1.26,3.18-2.07c0.99-0.81,1.89-1.72,2.67-2.72c0.79-1,1.46-2.07,2-3.24c0.54-1.16,0.93-2.38,1.17-3.66
			C193.35,24.44,193.41,23.22,193.29,22.05z M185.13,28.35c-0.49,0.81-1.07,1.52-1.77,2.12c-0.7,0.6-1.47,1.09-2.33,1.45
			c-0.86,0.37-1.75,0.59-2.67,0.67c-0.28,0.03-0.54,0.05-0.81,0.06c-0.27,0.02-0.55,0.03-0.83,0.03h-1.52l2.58-13.98h2.4
			c0.99,0,1.9,0.17,2.72,0.52c0.82,0.34,1.5,0.83,2.03,1.45c0.54,0.63,0.92,1.36,1.15,2.22c0.22,0.86,0.24,1.8,0.05,2.81
			C185.94,26.65,185.62,27.54,185.13,28.35z"/>
		<path class="st3" d="M219.18,38.37l-5.01-24.62l-0.26-1.03c-0.04-0.07-0.1-0.16-0.19-0.25c-0.03-0.03-0.06-0.06-0.09-0.1
			c-0.06-0.06-0.13-0.12-0.22-0.14c-0.08-0.03-0.17-0.05-0.28-0.05l-1.22,0.01c-2.46,0.04-4.93,1.52-6.29,3.76l-12.84,22.5
			c-0.14,0.24-0.15,0.42-0.03,0.55c0.03,0.03,0.07,0.06,0.12,0.08c0.04,0.03,0.08,0.05,0.12,0.06c0.09,0.03,0.19,0.05,0.3,0.05h5.38
			c0.47,0,0.82-0.23,1.05-0.67c0.35-0.62,0.69-1.23,1.04-1.85c0.35-0.61,0.7-1.23,1.04-1.85h9.65c0.12,0.62,0.24,1.23,0.35,1.85
			c0.12,0.61,0.25,1.23,0.37,1.85c0.04,0.24,0.13,0.41,0.26,0.52c0.07,0.05,0.15,0.09,0.26,0.12c0.1,0.03,0.21,0.04,0.35,0.04h5.22
			c0.25,0,0.45-0.05,0.61-0.13c0.06-0.03,0.1-0.06,0.14-0.1C219.18,38.81,219.23,38.61,219.18,38.37z M204.92,28.99
			c0.35-0.62,0.7-1.29,1.06-1.99c0.37-0.71,0.73-1.43,1.1-2.16c0.36-0.73,0.73-1.45,1.1-2.16c0.37-0.72,0.73-1.38,1.06-2l0.01-0.01
			l1.25,8.32H204.92z"/>
		<path class="st1" d="M113.71,38.37l-5.01-24.62l-0.27-1.03c-0.04-0.07-0.1-0.16-0.17-0.25c-0.03-0.03-0.06-0.06-0.09-0.1
			c-0.06-0.06-0.13-0.11-0.22-0.14c-0.08-0.03-0.17-0.05-0.28-0.05l-1.22,0.01c-2.46,0.04-4.93,1.52-6.29,3.76
			c-0.04,0.06-0.08,0.13-0.12,0.19L87.32,38.46c-0.14,0.25-0.15,0.43-0.02,0.55c0.03,0.03,0.07,0.06,0.12,0.08
			c0.04,0.03,0.08,0.05,0.12,0.06c0.09,0.03,0.19,0.05,0.3,0.05h3.36c1.62,0,3.23-1,4.09-2.5c0-0.01,0-0.01,0.01-0.02
			c0.35-0.61,0.69-1.23,1.04-1.85H106c0.11,0.62,0.23,1.23,0.35,1.85c0.11,0.61,0.24,1.23,0.36,1.85c0.05,0.24,0.13,0.41,0.26,0.52
			c0.07,0.05,0.16,0.09,0.27,0.12c0.1,0.03,0.21,0.04,0.35,0.04h5.22c0.25,0,0.45-0.05,0.61-0.13c0.04-0.03,0.09-0.06,0.13-0.1
			C113.71,38.81,113.76,38.61,113.71,38.37z M99.45,28.99c0.35-0.62,0.7-1.29,1.07-1.99c0.36-0.71,0.73-1.43,1.1-2.16
			c0.37-0.73,0.73-1.45,1.1-2.16c0.37-0.72,0.73-1.38,1.07-2l1.25,8.31H99.45z"/>
		<path class="st1" d="M134.29,13.12l-4.04,21.92c-0.01,0.04-0.01,0.07-0.03,0.1l-0.53,2.9c-0.72,3.86-3.56,6.47-6.3,7.04
			c0,0-0.25,0.05-0.36,0.06c-0.14,0.02-0.28,0.03-0.41,0.04c-0.12,0.01-0.24,0.01-0.36,0.01c-2.64,0-4.6-1.78-4.72-4.25
			c-0.06-1.25,1.06-1.56,1.64-1.07c0.13,0.11,0.32,0.14,0.52,0.16c0.06,0.01,0.12,0.03,0.18,0.03c0.01,0.01,0.02,0.01,0.03,0.01
			c0.07,0.01,0.14,0.01,0.22,0.01c0.5,0,1.01-0.18,1.43-0.48c0.04-0.03,0.1-0.06,0.14-0.1c0.03-0.01,0.05-0.04,0.08-0.06
			c0.06-0.05,0.12-0.1,0.17-0.16c0.08-0.07,0.15-0.16,0.22-0.24c0.06-0.07,0.12-0.14,0.17-0.22c0.14-0.2,0.23-0.41,0.29-0.64
			c0.03-0.09,0.05-0.19,0.07-0.28c0.01-0.08,0.02-0.15,0.03-0.22l4.56-24.78c0.08-0.45,0.37-0.69,0.85-0.73h5.35
			C134.13,12.18,134.4,12.5,134.29,13.12z"/>
	</g>
	<g>
		<path class="st0" d="M162.48,70.34c0.44,0.26,0.39,0.57-0.16,0.91c-0.42,0.24-0.84,0.38-1.25,0.42c-0.9,0.01-1.59-0.2-2.06-0.63
			c-1.59-1.52-2.27-3.53-2.04-6.01c0.19-1.84,0.58-3.66,1.19-5.44c0.61-1.78,1.36-3.55,2.26-5.3c0.82-1.55,1.65-3.08,2.48-4.6
			c0.83-1.52,1.65-3.03,2.47-4.55c0.47-0.88,0.91-1.75,1.33-2.63c0.42-0.88,0.84-1.75,1.28-2.63c0.1-0.17,0.18-0.36,0.23-0.58
			c0.05-0.22,0.11-0.43,0.19-0.63c-0.06-0.03-0.14-0.05-0.24-0.05c-0.13,0-0.41,0.17-0.82,0.51c-3.25,2.68-6,5.78-8.24,9.29
			c-0.67,1.01-1.31,2.03-1.93,3.06c-0.62,1.03-1.25,2.07-1.89,3.11c-0.72,1.11-1.36,2.51-1.91,4.19c-0.31,1.08-0.64,2.16-0.99,3.25
			c-0.35,1.09-0.68,2.19-1.01,3.3l-0.08,0.35c-0.33,1.01-0.78,1.71-1.33,2.1c-0.56,0.39-1.32,0.59-2.29,0.6
			c-0.67,0.01-1.26-0.13-1.76-0.41c-0.51-0.28-0.67-0.81-0.49-1.58c0.19-0.71,0.37-1.4,0.53-2.09c0.16-0.69,0.33-1.37,0.52-2.04
			c0.69-2.42,1.41-4.79,2.18-7.11c0.76-2.32,1.66-4.69,2.68-7.12c0.61-1.48,1.22-2.94,1.83-4.39c0.61-1.45,1.28-2.88,2.01-4.29
			c0.05-0.07,0.09-0.18,0.13-0.35c-0.41,0.34-0.78,0.71-1.11,1.12c-0.33,0.41-0.64,0.83-0.94,1.27c-1.69,2.3-3.29,4.62-4.77,6.96
			c-1.49,2.34-2.96,4.71-4.41,7.11c-0.7,1.15-1.39,2.28-2.08,3.39c-0.69,1.11-1.4,2.23-2.12,3.34c-0.84,1.32-1.5,2.56-2.01,3.74
			c-0.27,0.61-0.49,1.04-0.65,1.31c-0.32,0.67-0.82,1.26-1.5,1.75c-0.68,0.49-1.39,0.74-2.13,0.75c-0.5,0.01-0.95-0.11-1.33-0.34
			c-0.84-0.43-1.13-1.19-0.88-2.3c0.17-0.91,0.42-1.8,0.74-2.67c0.32-0.87,0.64-1.75,0.98-2.62c0.66-1.72,1.31-3.43,1.95-5.15
			c0.64-1.72,1.29-3.43,1.95-5.15c0.37-0.91,0.75-1.82,1.12-2.73c0.37-0.91,0.75-1.82,1.12-2.73c0.37-0.91,0.73-1.82,1.08-2.75
			c0.35-0.93,0.59-1.86,0.74-2.8c0.12-0.67,0.16-1.43,0.12-2.26c-0.01-0.27-0.09-0.61-0.24-1.03c-0.16-0.42-0.4-0.62-0.74-0.62
			c-0.17,0-0.4,0.05-0.69,0.16c-1.92,0.79-3.46,2.12-4.62,3.97c-0.58,0.94-0.96,1.87-1.14,2.78c-0.51,2.22-0.37,4.13,0.4,5.73
			c0.02,0.07,0.04,0.2,0.06,0.4c-0.23,0.27-0.51,0.41-0.85,0.41c-0.17,0-0.37-0.06-0.61-0.19c-0.59-0.36-0.95-0.98-1.08-1.85
			c-0.14-0.87-0.19-1.66-0.16-2.36c0.11-2.11,0.84-4.11,2.17-6.01c1.34-1.89,2.97-3.25,4.89-4.07c0.92-0.38,1.79-0.57,2.59-0.58
			c0.44-0.01,0.86,0.04,1.27,0.14c3.53,0.93,4.98,3.67,4.34,8.2c-0.16,1.14-0.43,2.28-0.8,3.4c-0.37,1.13-0.79,2.25-1.24,3.36
			c-0.22,0.5-0.34,0.96-0.36,1.36c0.08-0.07,0.15-0.15,0.21-0.25c0.06-0.1,0.13-0.18,0.21-0.25c1.55-2.56,3.22-5.2,4.99-7.92
			c1.77-2.72,3.76-5.16,5.96-7.33c0.58-0.64,1.31-1.05,2.19-1.23c0.14-0.04,0.35-0.05,0.61-0.06c1.04-0.01,1.71,0.38,2.01,1.18
			c0.3,0.8,0.35,1.66,0.14,2.56c-0.21,1.04-0.5,2.18-0.88,3.43c-0.24,0.77-0.51,1.56-0.79,2.37c-0.28,0.81-0.58,1.66-0.89,2.57
			c0.18-0.2,0.31-0.36,0.41-0.46c0.09-0.1,0.18-0.22,0.28-0.35c0.52-0.68,1.21-1.54,2.07-2.59c0.86-1.05,1.79-2.07,2.81-3.07
			c1.01-1,2.06-1.86,3.13-2.6c1.07-0.73,2.06-1.1,2.96-1.11c1.61-0.02,2.52,0.66,2.74,2.03c0.26,1.5,0.08,3.17-0.54,4.98
			c-0.54,1.61-1.17,3.18-1.9,4.7c-0.73,1.52-1.52,3.03-2.37,4.55c-0.79,1.42-1.58,2.81-2.36,4.2c-0.78,1.38-1.49,2.8-2.12,4.25
			c-0.44,1.04-0.84,2.09-1.22,3.13c-0.37,1.04-0.65,2.1-0.83,3.18c-0.11,0.5-0.16,1.06-0.13,1.66c0.11,0.84,0.47,1.25,1.07,1.24
			C162.18,70.24,162.29,70.27,162.48,70.34z"/>
		<path class="st0" d="M189.09,61.8c0.24-0.3,0.49-0.46,0.76-0.46c0.27,0,0.47,0.12,0.62,0.37c0.14,0.25,0.09,0.54-0.15,0.88
			c-0.94,1.35-1.95,2.79-3.01,4.31c-1.07,1.52-2.45,2.47-4.14,2.86c-0.28,0.07-0.59,0.11-0.93,0.11c-0.77,0.01-1.67-0.18-2.7-0.57
			c-1.03-0.39-1.65-1.29-1.87-2.69c-0.6,0.58-1.24,1.16-1.91,1.75c-0.67,0.59-1.41,0.96-2.21,1.1c-0.49,0.07-0.83,0.11-1.03,0.11
			c-1.14,0.01-2.13-0.33-2.98-1.02c-0.84-0.69-1.31-1.58-1.4-2.65c-0.1-1.61,0.14-3.28,0.72-5.01c0.58-1.73,1.41-3.36,2.49-4.88
			c0.99-1.42,2.19-2.57,3.6-3.46c1.41-0.89,2.89-1.34,4.47-1.35c0.8-0.01,1.42,0.26,1.85,0.81c0.43,0.55,0.83,1.09,1.21,1.62
			c0.35-1.24,1.21-1.87,2.59-1.89c0.69,0.06,1.15,0.26,1.4,0.59c0.24,0.33,0.3,0.7,0.17,1.1c-0.17,0.61-0.47,1.41-0.88,2.42
			c-0.42,1.01-0.85,2.09-1.3,3.26c-0.45,1.16-0.89,2.36-1.32,3.58c-0.43,1.23-0.77,2.38-1.01,3.45c-0.07,0.44-0.1,0.85-0.09,1.26
			c0.01,0.4,0.21,0.63,0.59,0.7c0.9-0.01,1.75-0.35,2.54-1.03c0.83-0.71,1.54-1.55,2.13-2.51C187.9,63.6,188.49,62.68,189.09,61.8z
			 M178.57,61.77c0.38-1.08,0.79-2.15,1.24-3.23c0.45-1.08,0.61-2.15,0.49-3.22c0.01-0.64-0.19-1.27-0.62-1.9
			c-0.14-0.27-0.41-0.4-0.81-0.39c-0.34,0-0.67,0.16-1.01,0.46c-0.88,0.91-1.51,1.73-1.91,2.43c-0.9,1.62-1.62,3.29-2.15,5.02
			c-0.53,1.73-0.73,3.42-0.6,5.06c0.04,0.54,0.35,0.8,0.92,0.79c0.3,0,0.6-0.12,0.89-0.36c0.82-0.68,1.56-1.38,2.21-2.11
			C177.86,63.59,178.32,62.74,178.57,61.77z"/>
		<path class="st0" d="M204.06,61.24c0.19-0.27,0.43-0.41,0.7-0.41c0.27,0,0.48,0.12,0.64,0.37c0.16,0.25,0.12,0.53-0.11,0.83
			c-0.63,0.85-1.32,1.73-2.09,2.66c-0.76,0.93-1.58,1.78-2.46,2.54c-0.88,0.76-1.81,1.39-2.79,1.89c-0.98,0.5-2.01,0.75-3.08,0.76
			c-1.64,0.02-3.06-0.3-4.24-0.96c-1.19-0.66-1.99-1.74-2.42-3.24c-0.48-1.7-0.3-3.49,0.55-5.36c0.84-1.87,1.93-3.56,3.24-5.09
			c1.78-2.1,3.88-3.16,6.29-3.18c0.7-0.01,1.31,0.1,1.83,0.33c0.95,0.36,1.53,1.07,1.72,2.14c0.19,1.07,0.12,2.13-0.22,3.17
			c-0.15,0.67-0.6,1.01-1.34,1.02c-0.57,0.01-0.82-0.21-0.76-0.64c0.06-0.57,0.1-1.33,0.1-2.29c0-0.95-0.38-1.43-1.15-1.42
			c-0.5,0.01-0.89,0.18-1.17,0.52c-1.12,1.39-2.04,2.85-2.76,4.4c-0.72,1.55-1.18,3.11-1.37,4.69c-0.1,1.17,0.02,2.17,0.37,2.99
			c0.35,0.82,0.99,1.22,1.93,1.21c0.77-0.01,1.57-0.26,2.4-0.75c0.83-0.49,1.63-1.1,2.39-1.81c0.76-0.71,1.48-1.47,2.15-2.26
			C203.07,62.55,203.62,61.85,204.06,61.24z"/>
		<path class="st2" d="M221.09,60.65c0.19-0.24,0.42-0.36,0.68-0.36c0.3,0,0.52,0.12,0.67,0.37c0.14,0.25,0.1,0.53-0.14,0.83
			c-0.87,1.01-1.91,2.16-3.14,3.43c-1.23,1.27-2.47,2.31-3.72,3.13c-1.82,1.36-3.71,2.05-5.69,2.07c-1.41,0.02-2.67-0.36-3.78-1.12
			c-1.11-0.76-1.87-1.94-2.27-3.54c-0.38-1.27-0.26-2.69,0.35-4.28c0.61-1.58,1.41-3.08,2.41-4.5c1.23-1.72,2.7-3.09,4.42-4.09
			c1.72-1.01,3.53-1.52,5.44-1.54c1.37,0.02,2.54,0.53,3.53,1.55c0.99,1.01,1.08,2.28,0.26,3.79c-0.79,1.42-1.9,2.45-3.32,3.1
			c-1.42,0.65-2.83,0.98-4.24,1c-0.8,0.01-1.57-0.08-2.29-0.28c-0.34,1.21-0.58,2.49-0.7,3.83c-0.12,1.34,0.13,2.38,0.77,3.11
			c0.45,0.53,0.99,0.79,1.63,0.79c0.7-0.01,1.61-0.34,2.73-0.98c0.32-0.24,0.64-0.48,0.95-0.74c0.31-0.25,0.63-0.52,0.96-0.79
			c0.88-0.78,1.7-1.61,2.47-2.49C219.84,62.06,220.51,61.3,221.09,60.65z M216.32,53.01c-0.44,0.01-0.93,0.24-1.49,0.7
			c-0.56,0.46-1.09,1.01-1.61,1.65c-0.51,0.64-0.98,1.28-1.39,1.9c-0.41,0.63-0.71,1.12-0.89,1.49c0.49,0.33,1.09,0.49,1.8,0.48
			c1.07-0.01,2.13-0.38,3.16-1.11c1.04-0.73,1.68-1.67,1.95-2.81c0.19-0.71,0.03-1.32-0.48-1.86
			C217.11,53.16,216.75,53.01,216.32,53.01z"/>
		<path class="st2" d="M231.49,60.79c0.24-0.3,0.47-0.46,0.71-0.46c0.27,0,0.48,0.12,0.64,0.37c0.16,0.25,0.11,0.56-0.14,0.93
			c-0.61,0.91-1.24,1.83-1.88,2.76c-0.65,0.93-1.35,1.83-2.12,2.71c-0.45,0.51-0.95,1.06-1.5,1.65c-0.55,0.59-1.15,0.99-1.8,1.2
			c-0.28,0.07-0.51,0.11-0.68,0.11c-0.77,0.01-1.5-0.26-2.2-0.81c-0.69-0.55-1.2-1.07-1.52-1.57c-1.19-1.8-1.48-3.85-0.85-6.17
			c0.39-1.41,0.97-2.93,1.74-4.54c0.77-1.62,1.59-3.07,2.45-4.35c0.29-0.54,0.72-0.94,1.28-1.2c0.56-0.26,1.13-0.39,1.7-0.4
			c0.7-0.01,1.28,0.2,1.74,0.61c0.46,0.41,0.47,1.04,0.05,1.88c-0.33,1.01-0.83,2.35-1.49,4.01c-0.67,1.67-1.29,3.3-1.87,4.9
			c-0.58,1.6-0.99,2.98-1.22,4.13c-0.23,1.16-0.06,1.74,0.51,1.73c0.2,0,0.48-0.11,0.82-0.31c0.2-0.14,0.43-0.36,0.7-0.66
			c0.27-0.3,0.51-0.56,0.73-0.76c0.78-0.91,1.5-1.86,2.18-2.84C230.11,62.75,230.8,61.77,231.49,60.79z M230.56,48.19
			c-0.7,0.41-1.43,0.62-2.2,0.63c-0.97,0.01-1.68-0.32-2.13-0.98c0.12-0.81,0.32-1.65,0.61-2.54c0.29-0.89,0.74-1.67,1.36-2.35
			c0.67-0.28,1.28-0.42,1.85-0.42c0.6-0.01,1.18,0.12,1.72,0.38c0.39,0.77,0.47,1.65,0.22,2.64
			C231.75,46.52,231.27,47.41,230.56,48.19z"/>
		<path class="st2" d="M250.38,60.64c0.11-0.07,0.29-0.1,0.52-0.11c0.37,0,0.57,0.17,0.61,0.52c0.04,0.35-0.17,0.63-0.62,0.84
			c-1.34,0.58-2.97,0.92-4.89,1.01c-1,2.02-2.32,3.74-3.96,5.14c-1.64,1.41-3.55,2.12-5.73,2.15c-2.48,0.03-4.37-0.76-5.68-2.35
			c-0.6-0.86-0.79-1.89-0.55-3.08c0.24-1.19,0.58-2.33,1.03-3.4c0.43-1.01,0.98-1.96,1.66-2.86c0.67-0.89,1.41-1.77,2.2-2.61
			c0.13-1.01,0.45-2.06,0.97-3.15c0.52-1.09,1.34-1.93,2.48-2.52c1.24-0.62,2.49-0.93,3.73-0.95c1.47-0.02,2.79,0.36,3.96,1.11
			c1.16,0.76,1.93,1.77,2.31,3.04c0.24,1,0.19,2.23-0.14,3.7c-0.33,1.46-0.8,2.83-1.39,4.11C248.36,61.21,249.52,61.02,250.38,60.64
			z M237.15,67.62c1.17-0.01,2.29-0.61,3.37-1.8c1.07-1.18,1.9-2.25,2.49-3.19c-1.33-0.32-2.58-0.73-3.75-1.24
			c-1.17-0.51-2.14-1.29-2.9-2.36c-0.49,1.11-0.92,2.25-1.3,3.41c-0.38,1.16-0.5,2.29-0.35,3.4c0.1,0.57,0.39,1.01,0.85,1.32
			C236.01,67.47,236.55,67.62,237.15,67.62z M243.92,61.01c0.71-1.48,1.15-2.86,1.35-4.14c0.19-1.28,0.18-2.38-0.02-3.32
			c-0.2-0.94-0.55-1.67-1.05-2.2c-0.5-0.53-1.08-0.79-1.75-0.78c-1.41,0.02-2.7,1.05-3.87,3.11c0.62,0.06,0.95,0.39,0.98,1
			c0.03,0.6-0.28,1.08-0.93,1.42c0.59,1.07,1.29,2.09,2.08,3.07C241.51,60.14,242.58,60.76,243.92,61.01z"/>
		<path class="st2" d="M246.1,47.46c-0.15-0.45,0.41-0.54,1.59-2.55c0.78-1.32,0.81-2.38,2.36-2.41c1.59-0.03,2.04,0.74,0.58,2.82
			c-0.8,1.14-3.03,2.68-4.31,2.31C246.22,47.62,246.13,47.55,246.1,47.46z"/>
	</g>
</g>
</svg>
