<?xml version="1.0" encoding="utf-8"?>
<!-- Generator: Adobe Illustrator 24.1.1, SVG Export Plug-In . SVG Version: 6.00 Build 0)  -->
<svg version="1.1" id="Layer_1" xmlns="http://www.w3.org/2000/svg" xmlns:xlink="http://www.w3.org/1999/xlink" x="0px" y="0px"
	 viewBox="0 0 256 82.21" style="enable-background:new 0 0 256 82.21;" xml:space="preserve">
<style type="text/css">
	.st0{fill:#FFFFFF;}
</style>
<g>
	<g>
		<path class="st0" d="M70.08,41.09c0,2.84-1.08,5.68-3.25,7.84c-2.16,2.16-5,3.25-7.84,3.25c-0.08,0-0.16,0-0.24,0l-3.95,3.95
			c-1.2,1.2-3.22,0.85-3.97-0.67c-0.65-1.3-1.51-2.5-2.56-3.55c-1.05-1.05-2.25-1.91-3.55-2.56c-1.52-0.76-1.88-2.77-0.67-3.97
			l3.87-3.87c-0.01-0.13-0.01-0.27-0.01-0.4c0-2.84,1.08-5.68,3.25-7.84c2.27-2.27,5.27-3.35,8.25-3.24
			c1.44,0.05,2.11,1.81,1.09,2.82l-4.01,4.01c-0.48,0.48-0.48,1.26,0,1.74l0,0c0.48,0.48,1.26,0.48,1.74,0l4.11-4.11
			c0.9-0.9,2.35-0.9,3.25,0l0.02,0.02c0.01,0.01,0.01,0.01,0.02,0.02c0.99,1,0.97,2.61-0.02,3.6l-3.93,3.93
			c-0.48,0.48-0.48,1.26,0,1.74h0c0.48,0.48,1.26,0.48,1.74,0l3.85-3.85c1.03-1.03,2.82-0.32,2.82,1.14
			C70.08,41.06,70.08,41.07,70.08,41.09z"/>
		<path class="st0" d="M29.42,40.8c0,0.11,0.01,0.22,0.01,0.32c0,2.84-1.08,5.68-3.25,7.84c-2.16,2.17-5,3.25-7.84,3.25
			c-0.01,0-0.02,0-0.04,0c-1.52,0-2.27-1.86-1.19-2.93l3.82-3.82c0.48-0.48,0.48-1.26,0-1.74l0,0c-0.48-0.48-1.26-0.48-1.74,0
			l-3.65,3.65c-0.95,0.95-2.49,0.97-3.44,0.02c-0.01-0.01-0.01-0.01-0.02-0.02c-0.01-0.01-0.01-0.01-0.02-0.02
			c-0.94-0.95-0.92-2.49,0.02-3.43l3.65-3.65c0.48-0.48,0.48-1.26,0-1.74l0,0c-0.48-0.48-1.26-0.48-1.74,0l-3.82,3.82
			c-1.07,1.07-2.93,0.33-2.93-1.19c0-0.01,0-0.03,0-0.04c0-2.84,1.08-5.68,3.25-7.84c2.25-2.25,5.22-3.33,8.16-3.24l3.91-3.91
			c1.2-1.2,3.2-0.85,3.95,0.66c0.64,1.28,1.5,2.47,2.54,3.52c1.07,1.07,2.28,1.94,3.6,2.58c1.53,0.75,1.89,2.77,0.68,3.98
			L29.42,40.8z"/>
		<path class="st0" d="M41.24,58.92L41.24,58.92c-0.48,0.48-0.48,1.26,0,1.74l4.01,4.01c0.92,0.92,0.95,2.43,0.03,3.36
			c-0.01,0.01-0.01,0.01-0.02,0.02c-0.03,0.03-0.07,0.07-0.1,0.1c-0.94,0.91-2.44,0.9-3.36-0.02l-4.01-4.01
			c-0.48-0.48-1.26-0.48-1.74,0l0,0c-0.48,0.48-0.48,1.26,0,1.74l3.84,3.84c1.05,1.05,0.32,2.87-1.17,2.88c-0.01,0-0.02,0-0.04,0
			c-2.84,0-5.68-1.08-7.84-3.25c-2.16-2.16-3.25-5-3.25-7.84c0-0.21,0.01-0.41,0.02-0.62l-3.72-3.72c-1.18-1.18-0.89-3.18,0.6-3.93
			c1.25-0.64,2.4-1.48,3.43-2.5c1.03-1.03,1.86-2.18,2.48-3.41c0.76-1.49,2.76-1.8,3.94-0.61l3.72,3.72
			c0.21-0.01,0.41-0.02,0.62-0.02c2.84,0,5.68,1.08,7.84,3.25c2.21,2.21,3.3,5.13,3.25,8.03c-0.03,1.49-1.82,2.23-2.88,1.17
			l-3.92-3.92C42.5,58.44,41.72,58.44,41.24,58.92z"/>
		<path class="st0" d="M53.44,25.07c1.18,1.18,0.89,3.18-0.6,3.93c-1.25,0.64-2.4,1.48-3.43,2.5c-1.03,1.03-1.86,2.18-2.48,3.41
			c-0.76,1.49-2.76,1.8-3.94,0.61l-3.72-3.72c-0.19,0.01-0.39,0.02-0.58,0.02c-2.84,0-5.68-1.08-7.84-3.25
			c-2.16-2.17-3.25-5-3.25-7.84c0-0.04,0-0.07,0-0.11c0.01-1.51,1.84-2.25,2.91-1.18l3.88,3.88c0.48,0.48,1.26,0.48,1.74,0l0,0
			c0.48-0.48,0.48-1.26,0-1.74l-4.33-4.33c-0.94-0.94-0.94-2.47,0-3.41l0,0c0.02-0.02,0.04-0.04,0.06-0.06
			c0.94-0.93,2.46-0.91,3.4,0.02l4.32,4.32c0.48,0.48,1.26,0.48,1.74,0v0c0.48-0.48,0.48-1.26,0-1.74l-3.85-3.85
			c-1.06-1.06-0.32-2.9,1.18-2.91c0.01,0,0.02,0,0.04,0c2.84,0,5.68,1.08,7.84,3.25c2.33,2.33,3.41,5.44,3.23,8.5L53.44,25.07z"/>
		<path class="st0" d="M68.06,66.66c-1.51-1.04,0.7-5.36-4.28-10.33c-0.01-0.01-0.02-0.03-0.04-0.04l-0.02-0.02
			c-0.84-0.84-0.54-2.24,0.54-2.7c1.59-0.67,3.05-1.65,4.3-2.91c1.26-1.26,2.17-2.91,2.77-4.26c0.51-1.15,2.03-1.44,2.9-0.53
			c1.84,1.92,2.51,7.89,1.31,12.37C74.02,63.95,70.04,68.02,68.06,66.66z"/>
		<path class="st0" d="M13.17,70.59c1.04-1.51,5.36,0.7,10.33-4.28c0.01-0.01,0.03-0.02,0.04-0.04l0.02-0.02
			c0.84-0.84,2.24-0.54,2.7,0.54c0.67,1.59,1.65,3.05,2.91,4.3c1.26,1.26,2.91,2.17,4.26,2.77c1.15,0.51,1.44,2.03,0.53,2.9
			c-1.92,1.84-7.89,2.51-12.37,1.31C15.87,76.56,11.8,72.58,13.17,70.59z"/>
		<path class="st0" d="M9.26,15.58c1.51,1.04-0.7,5.36,4.28,10.33c0.01,0.01,0.02,0.03,0.04,0.04l0.02,0.02
			c0.84,0.84,0.54,2.24-0.54,2.7c-1.59,0.67-3.05,1.65-4.3,2.91c-1.26,1.26-2.17,2.91-2.77,4.26c-0.51,1.15-2.03,1.44-2.9,0.53
			C1.25,34.44,0.57,28.48,1.77,24C3.3,18.28,7.28,14.21,9.26,15.58z"/>
		<path class="st0" d="M64.26,11.67c-1.04,1.51-5.36-0.7-10.33,4.28c-0.01,0.01-0.03,0.02-0.04,0.04l-0.02,0.02
			c-0.84,0.84-2.24,0.54-2.7-0.54c-0.67-1.59-1.65-3.05-2.91-4.3c-1.26-1.26-2.91-2.17-4.26-2.77c-1.15-0.51-1.44-2.03-0.53-2.9
			c1.92-1.84,7.89-2.51,12.37-1.31C61.55,5.71,65.63,9.69,64.26,11.67z"/>
	</g>
	<g>
		<path class="st0" d="M165.71,11.51c-0.13-0.17-0.34-0.25-0.62-0.25h-5.43c-0.26,0-0.48,0.08-0.67,0.24
			c-0.18,0.16-0.3,0.35-0.34,0.57l-2.91,15.79c-0.15,0.82-0.4,1.55-0.76,2.18c-0.35,0.63-0.78,1.16-1.28,1.59
			c-0.5,0.43-1.04,0.75-1.63,0.97c-0.6,0.22-1.2,0.32-1.82,0.32c-0.59,0-1.15-0.09-1.67-0.28c-0.51-0.19-0.95-0.48-1.29-0.89
			c-0.34-0.4-0.58-0.93-0.72-1.57c-0.14-0.63-0.12-1.41,0.05-2.33l2.91-15.79c0.04-0.24-0.02-0.43-0.2-0.59
			c-0.18-0.15-0.36-0.23-0.55-0.23h-5.56c-0.21,0-0.4,0.09-0.57,0.25s-0.28,0.36-0.32,0.57l-2.89,15.68
			c-0.34,1.82-0.4,3.41-0.17,4.75c0.03,0.19,0.21,0.29,0.41,0.27c0.33-0.05,0.65-0.07,0.96-0.07h0.09c0.56,0,1.11,0.06,1.63,0.19
			c1.89,0.53,5.15,1.92,5.37,5.66c0.02,0.4,0.32,0.68,0.73,0.71c0.04,0,0.09,0.01,0.13,0.01c0.31,0.02,0.64-0.13,0.88-0.38
			c1.66-1.76,2.73-3.4,4.53-4.91c1.02-0.92,2.2-1.52,3.51-1.78c0.3-0.07,0.63-0.1,1.03-0.1c0.94,0,1.7,0.23,2.28,0.63
			c0.27,0.19,0.68-0.18,0.84-0.51c0.56-1.1,1.02-2.88,1.32-4.47l2.89-15.68C165.89,11.86,165.84,11.67,165.71,11.51z"/>
		<path class="st0" d="M194.81,21.35c-0.12-1.19-0.4-2.3-0.82-3.32c-0.42-1.03-0.99-1.96-1.71-2.8c-0.72-0.83-1.55-1.54-2.48-2.13
			c-0.94-0.59-1.99-1.06-3.14-1.38c-1.14-0.32-2.38-0.48-3.67-0.48h-9.17c-0.28,0-0.52,0.08-0.69,0.24
			c-0.17,0.16-0.29,0.37-0.33,0.63l-3.88,21.05c-0.1,0.53,0.27,0.95,0.81,0.93c0,0,0.01,0,0.01,0c2.51,0,4.65,1.36,4.6,3.65
			c0,0.12,0,0.23-0.01,0.35c-0.02,0.46,0.3,0.8,0.77,0.8h2.81c1.3,0,2.59-0.16,3.86-0.48c1.27-0.32,2.49-0.77,3.64-1.35
			c1.15-0.58,2.24-1.29,3.25-2.12c1.01-0.83,1.93-1.76,2.73-2.78c0.81-1.02,1.49-2.12,2.04-3.31c0.55-1.18,0.95-2.43,1.19-3.75
			C194.87,23.79,194.92,22.55,194.81,21.35z M186.46,27.79c-0.5,0.83-1.1,1.55-1.81,2.17c-0.71,0.61-1.51,1.11-2.38,1.49
			c-0.88,0.38-1.79,0.61-2.73,0.68c-0.28,0.03-0.56,0.05-0.83,0.07c-0.28,0.02-0.56,0.03-0.84,0.03h-1.56l2.63-14.3h2.45
			c1.02,0,1.94,0.17,2.78,0.53c0.83,0.35,1.53,0.85,2.08,1.49c0.55,0.64,0.95,1.39,1.18,2.27c0.23,0.88,0.24,1.84,0.05,2.87
			C187.29,26.06,186.95,26.96,186.46,27.79z"/>
		<path class="st0" d="M221.28,38.04l-5.13-25.18l-0.27-1.06c-0.04-0.07-0.1-0.17-0.19-0.25c-0.03-0.03-0.06-0.07-0.09-0.1
			c-0.06-0.07-0.14-0.12-0.22-0.15c-0.08-0.03-0.18-0.05-0.28-0.05l-1.24,0.01c-2.52,0.04-5.04,1.55-6.43,3.85l-13.13,23.02
			c-0.14,0.24-0.15,0.43-0.03,0.56c0.03,0.03,0.08,0.06,0.12,0.08c0.04,0.03,0.08,0.05,0.13,0.06c0.09,0.03,0.19,0.05,0.3,0.05h5.5
			c0.48,0,0.84-0.23,1.08-0.69c0.35-0.63,0.71-1.26,1.06-1.89c0.36-0.63,0.71-1.26,1.07-1.89h9.87c0.12,0.63,0.24,1.26,0.36,1.89
			c0.12,0.63,0.25,1.26,0.38,1.89c0.04,0.24,0.13,0.42,0.27,0.53c0.07,0.05,0.15,0.09,0.26,0.12c0.1,0.03,0.22,0.04,0.36,0.04h5.34
			c0.26,0,0.46-0.05,0.62-0.13c0.06-0.03,0.1-0.06,0.14-0.1C221.28,38.49,221.33,38.29,221.28,38.04z M206.7,28.44
			c0.35-0.63,0.72-1.32,1.09-2.04c0.38-0.73,0.75-1.46,1.13-2.21c0.37-0.75,0.74-1.48,1.12-2.21c0.38-0.73,0.74-1.41,1.08-2.04
			l0.01-0.01l1.28,8.5H206.7z"/>
		<path class="st0" d="M113.41,38.04l-5.12-25.18l-0.27-1.06c-0.04-0.07-0.1-0.16-0.18-0.25c-0.03-0.03-0.06-0.07-0.09-0.1
			c-0.06-0.06-0.14-0.11-0.22-0.15c-0.08-0.03-0.18-0.05-0.28-0.05L106,11.27c-2.52,0.04-5.04,1.55-6.43,3.85
			c-0.05,0.07-0.08,0.13-0.12,0.2L86.43,38.13c-0.15,0.25-0.15,0.44-0.02,0.56c0.03,0.03,0.08,0.06,0.12,0.08
			c0.04,0.03,0.08,0.05,0.13,0.06c0.09,0.03,0.19,0.05,0.3,0.05h3.44c1.65,0,3.31-1.02,4.18-2.56c0-0.01,0-0.01,0.01-0.02
			c0.35-0.63,0.71-1.26,1.06-1.89h9.88c0.11,0.63,0.24,1.26,0.36,1.89c0.12,0.63,0.24,1.26,0.37,1.89c0.05,0.24,0.13,0.42,0.27,0.53
			c0.07,0.05,0.16,0.09,0.28,0.12c0.1,0.03,0.22,0.04,0.36,0.04h5.34c0.26,0,0.46-0.05,0.62-0.13c0.05-0.03,0.09-0.07,0.13-0.1
			C113.41,38.49,113.47,38.29,113.41,38.04z M98.83,28.44c0.35-0.63,0.72-1.32,1.1-2.04c0.37-0.73,0.74-1.46,1.12-2.21
			c0.38-0.75,0.75-1.48,1.12-2.21c0.38-0.73,0.74-1.41,1.1-2.04l1.28,8.5H98.83z"/>
		<path class="st0" d="M134.46,12.22l-4.13,22.41c-0.01,0.04-0.01,0.07-0.03,0.11l-0.55,2.97c-0.74,3.95-3.64,6.61-6.45,7.2
			c0,0-0.26,0.05-0.37,0.06c-0.14,0.02-0.28,0.03-0.42,0.04c-0.12,0.01-0.25,0.01-0.37,0.01c-2.7,0-4.71-1.82-4.82-4.34
			c-0.06-1.28,1.08-1.59,1.68-1.09c0.13,0.11,0.33,0.14,0.53,0.17c0.06,0.01,0.12,0.03,0.19,0.03c0.01,0.01,0.02,0.01,0.03,0.01
			c0.07,0.01,0.14,0.01,0.22,0.01c0.52,0,1.03-0.19,1.46-0.49c0.05-0.03,0.1-0.07,0.15-0.11c0.03-0.01,0.05-0.04,0.08-0.06
			c0.06-0.05,0.12-0.1,0.17-0.16c0.08-0.07,0.15-0.16,0.22-0.24c0.07-0.07,0.12-0.15,0.17-0.22c0.14-0.2,0.24-0.42,0.3-0.65
			c0.03-0.09,0.06-0.19,0.07-0.29c0.01-0.08,0.02-0.15,0.03-0.22L127.3,12c0.09-0.46,0.37-0.71,0.86-0.75h5.47
			C134.3,11.26,134.58,11.58,134.46,12.22z"/>
	</g>
	<g>
		<path class="st0" d="M163.29,70.73c0.45,0.27,0.4,0.58-0.16,0.93c-0.43,0.24-0.86,0.39-1.28,0.43c-0.93,0.01-1.63-0.21-2.11-0.65
			c-1.63-1.56-2.32-3.61-2.08-6.15c0.19-1.89,0.6-3.74,1.22-5.56c0.62-1.82,1.39-3.63,2.32-5.42c0.84-1.58,1.69-3.15,2.54-4.71
			c0.85-1.55,1.69-3.1,2.52-4.65c0.48-0.9,0.93-1.79,1.36-2.69c0.43-0.9,0.86-1.79,1.31-2.69c0.11-0.17,0.19-0.37,0.24-0.59
			c0.05-0.22,0.12-0.44,0.2-0.64c-0.06-0.03-0.14-0.05-0.24-0.05c-0.14,0-0.42,0.18-0.84,0.52c-3.33,2.74-6.14,5.91-8.43,9.5
			c-0.68,1.04-1.34,2.08-1.97,3.13c-0.63,1.05-1.28,2.11-1.93,3.18c-0.74,1.14-1.39,2.57-1.95,4.29c-0.32,1.1-0.66,2.21-1.02,3.33
			c-0.36,1.12-0.7,2.24-1.03,3.38l-0.08,0.36c-0.34,1.03-0.79,1.75-1.36,2.15c-0.57,0.4-1.35,0.61-2.35,0.62
			c-0.69,0.01-1.29-0.13-1.8-0.42c-0.52-0.29-0.68-0.82-0.5-1.61c0.2-0.72,0.38-1.44,0.54-2.14c0.16-0.7,0.34-1.4,0.53-2.09
			c0.7-2.48,1.44-4.9,2.23-7.27c0.78-2.37,1.69-4.8,2.74-7.28c0.62-1.51,1.24-3.01,1.87-4.49c0.63-1.48,1.31-2.94,2.05-4.39
			c0.05-0.07,0.09-0.19,0.13-0.36c-0.42,0.35-0.8,0.73-1.13,1.14c-0.33,0.41-0.65,0.85-0.96,1.3c-1.73,2.35-3.36,4.72-4.88,7.12
			c-1.52,2.4-3.02,4.82-4.51,7.27c-0.71,1.17-1.42,2.33-2.12,3.47c-0.71,1.14-1.43,2.28-2.17,3.42c-0.85,1.35-1.54,2.62-2.05,3.83
			c-0.28,0.62-0.5,1.07-0.67,1.34c-0.33,0.69-0.84,1.29-1.54,1.79c-0.7,0.5-1.42,0.76-2.18,0.77c-0.51,0.01-0.97-0.11-1.36-0.35
			c-0.86-0.44-1.16-1.22-0.9-2.36c0.18-0.93,0.43-1.84,0.75-2.73c0.32-0.89,0.66-1.79,1-2.68c0.67-1.76,1.34-3.51,2-5.27
			c0.66-1.76,1.32-3.51,2-5.27c0.38-0.93,0.77-1.86,1.15-2.79c0.38-0.93,0.77-1.86,1.15-2.79c0.38-0.93,0.75-1.87,1.1-2.81
			c0.35-0.95,0.6-1.9,0.76-2.86c0.12-0.69,0.16-1.46,0.12-2.31c-0.01-0.27-0.09-0.62-0.25-1.05c-0.16-0.43-0.41-0.64-0.75-0.64
			c-0.17,0-0.41,0.06-0.7,0.16c-1.96,0.81-3.54,2.16-4.72,4.06c-0.6,0.97-0.98,1.91-1.16,2.84c-0.52,2.27-0.38,4.22,0.41,5.86
			c0.02,0.07,0.04,0.21,0.06,0.41c-0.23,0.28-0.52,0.42-0.86,0.42c-0.17,0-0.38-0.06-0.62-0.2c-0.6-0.37-0.97-1-1.11-1.89
			c-0.14-0.89-0.19-1.7-0.17-2.41c0.12-2.16,0.86-4.21,2.22-6.14c1.37-1.93,3.03-3.32,5-4.17c0.94-0.39,1.83-0.59,2.65-0.59
			c0.45-0.01,0.88,0.04,1.3,0.14c3.61,0.96,5.09,3.75,4.44,8.38c-0.16,1.17-0.44,2.33-0.82,3.48c-0.38,1.15-0.81,2.3-1.27,3.43
			c-0.22,0.52-0.34,0.98-0.37,1.39c0.08-0.07,0.15-0.16,0.21-0.26c0.06-0.1,0.13-0.19,0.21-0.26c1.59-2.62,3.29-5.32,5.11-8.1
			c1.81-2.78,3.85-5.28,6.1-7.49c0.59-0.66,1.34-1.08,2.24-1.26c0.14-0.04,0.35-0.06,0.63-0.06c1.06-0.01,1.75,0.39,2.06,1.21
			c0.31,0.82,0.36,1.69,0.14,2.62c-0.21,1.06-0.51,2.23-0.9,3.5c-0.25,0.79-0.52,1.6-0.81,2.43c-0.29,0.82-0.59,1.7-0.91,2.63
			c0.18-0.21,0.32-0.36,0.41-0.47c0.09-0.1,0.19-0.22,0.29-0.36c0.53-0.69,1.24-1.57,2.12-2.64c0.88-1.07,1.83-2.12,2.87-3.14
			c1.04-1.02,2.1-1.91,3.2-2.66c1.09-0.75,2.1-1.13,3.03-1.14c1.64-0.02,2.58,0.68,2.81,2.08c0.26,1.54,0.08,3.24-0.55,5.09
			c-0.55,1.65-1.2,3.25-1.94,4.8c-0.75,1.55-1.55,3.1-2.42,4.65c-0.81,1.45-1.62,2.88-2.42,4.29c-0.8,1.41-1.52,2.86-2.17,4.34
			c-0.45,1.07-0.86,2.14-1.24,3.2c-0.38,1.07-0.66,2.15-0.85,3.25c-0.12,0.51-0.16,1.08-0.13,1.7c0.11,0.86,0.48,1.28,1.09,1.27
			C162.99,70.63,163.1,70.67,163.29,70.73z"/>
		<path class="st0" d="M190.51,62.01c0.24-0.31,0.5-0.47,0.77-0.47c0.27,0,0.48,0.12,0.63,0.38c0.15,0.25,0.09,0.56-0.15,0.9
			c-0.97,1.38-1.99,2.85-3.08,4.4c-1.09,1.55-2.5,2.53-4.23,2.93c-0.29,0.07-0.61,0.11-0.95,0.11c-0.79,0.01-1.71-0.19-2.76-0.59
			c-1.05-0.4-1.69-1.32-1.91-2.76c-0.61,0.59-1.26,1.19-1.95,1.79c-0.69,0.61-1.44,0.98-2.26,1.13c-0.5,0.07-0.85,0.11-1.05,0.11
			c-1.17,0.01-2.18-0.34-3.04-1.05c-0.86-0.71-1.34-1.61-1.43-2.71c-0.1-1.64,0.14-3.35,0.73-5.12c0.59-1.77,1.44-3.43,2.55-4.99
			c1.02-1.45,2.24-2.63,3.68-3.54c1.44-0.91,2.96-1.37,4.57-1.39c0.82-0.01,1.45,0.27,1.89,0.83c0.44,0.56,0.85,1.11,1.24,1.66
			c0.36-1.27,1.24-1.92,2.65-1.93c0.7,0.06,1.18,0.26,1.43,0.6c0.25,0.34,0.31,0.72,0.18,1.13c-0.18,0.62-0.48,1.45-0.9,2.48
			c-0.42,1.03-0.87,2.14-1.32,3.33c-0.46,1.19-0.91,2.41-1.35,3.66c-0.44,1.26-0.79,2.43-1.04,3.53c-0.07,0.45-0.1,0.87-0.09,1.29
			c0.01,0.41,0.21,0.65,0.61,0.71c0.93-0.01,1.79-0.36,2.6-1.06c0.85-0.73,1.57-1.59,2.18-2.57
			C189.29,63.85,189.89,62.91,190.51,62.01z M179.75,61.97c0.39-1.1,0.81-2.2,1.27-3.3c0.46-1.1,0.62-2.2,0.5-3.3
			c0.01-0.65-0.2-1.3-0.63-1.95c-0.14-0.27-0.42-0.41-0.83-0.4c-0.34,0-0.69,0.16-1.03,0.47c-0.9,0.94-1.55,1.76-1.95,2.49
			c-0.93,1.66-1.66,3.37-2.2,5.14c-0.54,1.77-0.75,3.5-0.62,5.17c0.05,0.55,0.36,0.82,0.94,0.81c0.31,0,0.61-0.13,0.91-0.37
			c0.84-0.69,1.6-1.41,2.26-2.16C179.02,63.84,179.49,62.97,179.75,61.97z"/>
		<path class="st0" d="M205.82,61.43c0.2-0.28,0.44-0.41,0.71-0.42c0.27,0,0.49,0.12,0.66,0.38c0.16,0.26,0.12,0.54-0.12,0.85
			c-0.64,0.86-1.35,1.77-2.13,2.72c-0.78,0.95-1.62,1.82-2.52,2.6c-0.9,0.78-1.85,1.43-2.85,1.93c-1.01,0.51-2.06,0.77-3.15,0.78
			c-1.68,0.02-3.13-0.31-4.34-0.98c-1.21-0.67-2.04-1.78-2.47-3.32c-0.49-1.74-0.3-3.57,0.56-5.48c0.86-1.91,1.97-3.65,3.32-5.2
			c1.82-2.14,3.97-3.23,6.44-3.26c0.72-0.01,1.34,0.11,1.87,0.34c0.98,0.37,1.56,1.1,1.76,2.19c0.19,1.1,0.12,2.18-0.23,3.24
			c-0.16,0.69-0.61,1.04-1.37,1.04c-0.58,0.01-0.84-0.21-0.77-0.66c0.06-0.58,0.1-1.36,0.1-2.34c0-0.98-0.39-1.46-1.18-1.45
			c-0.51,0.01-0.91,0.18-1.2,0.53c-1.14,1.42-2.09,2.92-2.82,4.5c-0.74,1.58-1.21,3.18-1.4,4.8c-0.1,1.2,0.02,2.22,0.38,3.05
			c0.36,0.84,1.01,1.25,1.97,1.24c0.79-0.01,1.61-0.27,2.46-0.77c0.85-0.51,1.67-1.12,2.45-1.85c0.78-0.73,1.51-1.5,2.19-2.31
			C204.8,62.77,205.37,62.05,205.82,61.43z"/>
		<path class="st0" d="M223.24,60.83c0.19-0.24,0.42-0.37,0.7-0.37c0.31,0,0.54,0.12,0.68,0.38c0.15,0.25,0.1,0.54-0.14,0.85
			c-0.89,1.04-1.96,2.21-3.21,3.51c-1.25,1.3-2.52,2.37-3.81,3.2c-1.86,1.39-3.8,2.1-5.82,2.12c-1.44,0.02-2.73-0.36-3.87-1.14
			c-1.14-0.78-1.91-1.98-2.33-3.63c-0.39-1.3-0.27-2.75,0.36-4.37c0.63-1.62,1.45-3.15,2.46-4.6c1.26-1.76,2.76-3.16,4.52-4.19
			c1.76-1.03,3.61-1.56,5.56-1.58c1.4,0.02,2.6,0.55,3.61,1.58c1.01,1.03,1.1,2.33,0.27,3.88c-0.81,1.45-1.94,2.51-3.39,3.17
			c-1.45,0.67-2.9,1.01-4.34,1.02c-0.82,0.01-1.6-0.09-2.35-0.28c-0.35,1.24-0.59,2.54-0.71,3.92c-0.13,1.37,0.14,2.43,0.79,3.18
			c0.46,0.54,1.01,0.81,1.66,0.8c0.72-0.01,1.65-0.34,2.79-1.01c0.33-0.24,0.65-0.49,0.97-0.76c0.32-0.26,0.64-0.53,0.98-0.81
			c0.9-0.8,1.74-1.65,2.53-2.55C221.95,62.27,222.64,61.49,223.24,60.83z M218.36,53.02c-0.45,0.01-0.95,0.24-1.52,0.71
			c-0.57,0.47-1.12,1.03-1.64,1.69c-0.53,0.66-1,1.3-1.42,1.94c-0.42,0.64-0.72,1.15-0.91,1.53c0.5,0.34,1.12,0.5,1.84,0.49
			c1.1-0.01,2.17-0.39,3.23-1.14c1.06-0.75,1.72-1.71,1.99-2.87c0.2-0.72,0.04-1.35-0.49-1.9C219.16,53.16,218.8,53.01,218.36,53.02
			z"/>
		<path class="st0" d="M233.87,60.97c0.24-0.31,0.48-0.47,0.72-0.47c0.27,0,0.49,0.12,0.66,0.38c0.16,0.25,0.12,0.57-0.14,0.95
			c-0.62,0.93-1.27,1.87-1.93,2.82c-0.66,0.95-1.39,1.88-2.17,2.77c-0.46,0.52-0.97,1.08-1.54,1.69c-0.57,0.61-1.18,1.02-1.84,1.23
			c-0.29,0.07-0.52,0.11-0.69,0.11c-0.79,0.01-1.54-0.27-2.25-0.82c-0.71-0.56-1.23-1.09-1.56-1.6c-1.22-1.84-1.51-3.94-0.86-6.31
			c0.4-1.44,0.99-2.99,1.78-4.65c0.79-1.65,1.62-3.14,2.5-4.45c0.3-0.55,0.73-0.96,1.3-1.22c0.57-0.26,1.15-0.4,1.73-0.4
			c0.72-0.01,1.31,0.2,1.78,0.62c0.47,0.42,0.48,1.07,0.05,1.93c-0.34,1.03-0.85,2.4-1.53,4.1c-0.68,1.7-1.32,3.37-1.91,5.01
			c-0.6,1.63-1.01,3.04-1.25,4.23c-0.24,1.19-0.06,1.78,0.52,1.77c0.21,0,0.49-0.11,0.84-0.32c0.2-0.14,0.44-0.36,0.72-0.68
			c0.28-0.31,0.52-0.57,0.74-0.78c0.79-0.93,1.54-1.9,2.23-2.9C232.46,62.98,233.16,61.98,233.87,60.97z M232.92,48.08
			c-0.71,0.42-1.46,0.63-2.25,0.64c-0.99,0.01-1.72-0.32-2.18-1.01c0.12-0.82,0.33-1.69,0.62-2.6c0.29-0.91,0.76-1.71,1.4-2.41
			c0.68-0.28,1.31-0.43,1.89-0.43c0.62-0.01,1.2,0.12,1.76,0.39c0.4,0.78,0.48,1.68,0.23,2.7
			C234.14,46.38,233.65,47.28,232.92,48.08z"/>
		<path class="st0" d="M253.19,60.82c0.12-0.07,0.3-0.11,0.54-0.11c0.38,0,0.58,0.17,0.62,0.53c0.04,0.36-0.17,0.64-0.63,0.85
			c-1.37,0.6-3.03,0.94-5,1.03c-1.02,2.07-2.37,3.82-4.05,5.26c-1.68,1.44-3.63,2.17-5.86,2.2c-2.54,0.03-4.47-0.77-5.81-2.4
			c-0.62-0.88-0.81-1.94-0.56-3.16c0.24-1.22,0.6-2.38,1.05-3.48c0.44-1.03,1-2.01,1.69-2.92c0.69-0.92,1.44-1.81,2.25-2.67
			c0.13-1.03,0.46-2.1,0.99-3.22c0.53-1.12,1.37-1.98,2.54-2.57c1.27-0.63,2.54-0.95,3.81-0.97c1.51-0.02,2.86,0.36,4.05,1.14
			c1.19,0.78,1.98,1.81,2.37,3.11c0.24,1.02,0.2,2.29-0.15,3.78c-0.34,1.5-0.82,2.9-1.42,4.21
			C251.12,61.41,252.31,61.2,253.19,60.82z M239.66,67.95c1.2-0.01,2.35-0.62,3.44-1.84c1.1-1.21,1.94-2.3,2.54-3.27
			c-1.36-0.33-2.64-0.75-3.84-1.27c-1.2-0.52-2.19-1.32-2.96-2.41c-0.5,1.14-0.94,2.3-1.33,3.48c-0.39,1.19-0.51,2.35-0.36,3.47
			c0.11,0.58,0.4,1.03,0.87,1.35C238.5,67.81,239.04,67.96,239.66,67.95z M246.59,61.2c0.72-1.52,1.18-2.93,1.38-4.23
			c0.2-1.3,0.19-2.44-0.02-3.39c-0.21-0.96-0.57-1.71-1.08-2.25c-0.51-0.54-1.11-0.81-1.79-0.8c-1.44,0.02-2.76,1.08-3.96,3.18
			c0.64,0.06,0.97,0.4,1,1.02c0.03,0.62-0.29,1.1-0.95,1.45c0.61,1.09,1.31,2.14,2.13,3.14C244.11,60.31,245.21,60.94,246.59,61.2z"
			/>
		<path class="st0" d="M248.81,47.34c-0.16-0.46,0.42-0.56,1.62-2.6c0.8-1.35,0.82-2.43,2.41-2.46c1.63-0.03,2.09,0.76,0.6,2.89
			c-0.82,1.17-3.1,2.74-4.4,2.36C248.93,47.5,248.84,47.43,248.81,47.34z"/>
	</g>
</g>
</svg>
